<svg width="282" height="560" viewBox="0 0 282 560" fill="none" xmlns="http://www.w3.org/2000/svg">
<g filter="url(#filter0_b_295_124)">
<path d="M250.244 10.9355C262.861 6.03493 290.051 1.44373 301.949 1.44373L294.241 558.916C274.265 558.916 249.127 557.648 214.954 551.45C174.157 544.051 134.806 532.329 107.277 518.147C92.8125 510.696 80.3902 505.657 65.4932 494.166C36.8344 472.059 16.1991 440.734 9.41303 420.376C-0.430424 390.846 -4.59935 363.228 10.3354 332.197C25.7493 300.171 58.4517 283.148 81.7269 275.748C104.027 268.659 118.666 268.695 138.268 255.917C150.033 248.248 156.329 243 165.279 232.178C190.787 201.331 193.251 184.914 193.251 161.282C193.251 137.65 178.497 89.9384 187.984 65.7892C199.832 35.6283 217.643 23.5975 250.244 10.9355Z" fill="#00F018" fill-opacity="0.19"/>
<path d="M250.244 10.9355C262.861 6.03493 290.051 1.44373 301.949 1.44373L294.241 558.916C274.265 558.916 249.127 557.648 214.954 551.45C174.157 544.051 134.806 532.329 107.277 518.147C92.8125 510.696 80.3902 505.657 65.4932 494.166C36.8344 472.059 16.1991 440.734 9.41303 420.376C-0.430424 390.846 -4.59935 363.228 10.3354 332.197C25.7493 300.171 58.4517 283.148 81.7269 275.748C104.027 268.659 118.666 268.695 138.268 255.917C150.033 248.248 156.329 243 165.279 232.178C190.787 201.331 193.251 184.914 193.251 161.282C193.251 137.65 178.497 89.9384 187.984 65.7892C199.832 35.6283 217.643 23.5975 250.244 10.9355Z" stroke="white" stroke-opacity="0.2" stroke-linecap="round"/>
</g>
<defs>
<filter id="filter0_b_295_124" x="-24.957" y="-24.0563" width="352.414" height="608.472" filterUnits="userSpaceOnUse" color-interpolation-filters="sRGB">
<feFlood flood-opacity="0" result="BackgroundImageFix"/>
<feGaussianBlur in="BackgroundImageFix" stdDeviation="12.5"/>
<feComposite in2="SourceAlpha" operator="in" result="effect1_backgroundBlur_295_124"/>
<feBlend mode="normal" in="SourceGraphic" in2="effect1_backgroundBlur_295_124" result="shape"/>
</filter>
</defs>
</svg>
