<svg width="38" height="29" viewBox="0 0 38 29" fill="none" xmlns="http://www.w3.org/2000/svg">
<path d="M31.8397 2.78665C29.4543 1.67062 26.9039 0.859542 24.2374 0.397705C23.9099 0.989763 23.5274 1.78609 23.2636 2.41957C20.4291 1.9933 17.6206 1.9933 14.8382 2.41957C14.5745 1.78609 14.1832 0.989763 13.8528 0.397705C11.1835 0.859542 8.63008 1.6736 6.24478 2.79256C1.4336 10.0629 0.129363 17.1526 0.78148 24.1417C3.97251 26.5247 7.065 27.9723 10.1053 28.9195C10.856 27.8864 11.5255 26.7882 12.1022 25.6307C11.0038 25.2133 9.95169 24.6982 8.95761 24.1003C9.22133 23.9049 9.4793 23.7006 9.72853 23.4904C15.7918 26.3264 22.3796 26.3264 28.3704 23.4904C28.6226 23.7006 28.8805 23.9049 29.1413 24.1003C28.1443 24.7012 27.0893 25.2163 25.9909 25.6337C26.5677 26.7882 27.2343 27.8894 27.9878 28.9225C31.031 27.9752 34.1264 26.5277 37.3174 24.1417C38.0826 16.0396 36.0103 9.01495 31.8397 2.78665ZM12.9282 19.8435C11.1081 19.8435 9.61548 18.1443 9.61548 16.0751C9.61548 14.0059 11.0763 12.3038 12.9282 12.3038C14.7803 12.3038 16.2729 14.0029 16.241 16.0751C16.2439 18.1443 14.7803 19.8435 12.9282 19.8435ZM25.1707 19.8435C23.3506 19.8435 21.8579 18.1443 21.8579 16.0751C21.8579 14.0059 23.3186 12.3038 25.1707 12.3038C27.0227 12.3038 28.5153 14.0029 28.4834 16.0751C28.4834 18.1443 27.0227 19.8435 25.1707 19.8435Z" fill="white"/>
</svg>
